<svg width="20" height="20" viewBox="0 0 20 20" fill="none" xmlns="http://www.w3.org/2000/svg">
<g clip-path="url(#clip0_75_618)">
<path d="M9.9998 0.800049C4.92352 0.800049 0.799805 4.92377 0.799805 10C0.799805 15.0763 4.92352 19.2 9.9998 19.2C15.0761 19.2 19.1998 15.0763 19.1998 10C19.1998 4.92377 15.0761 0.800049 9.9998 0.800049ZM9.9998 1.60005C14.6437 1.60005 18.3998 5.35612 18.3998 10C18.3998 14.644 14.6437 18.4 9.9998 18.4C5.35588 18.4 1.5998 14.644 1.5998 10C1.5998 5.35612 5.35588 1.60005 9.9998 1.60005ZM9.5998 5.20005V9.60005H5.1998V10.4H9.5998V14.8H10.3998V10.4H14.7998V9.60005H10.3998V5.20005H9.5998Z" fill="white"/>
</g>
<defs>
<clipPath id="clip0_75_618">
<rect width="20" height="20" fill="white"/>
</clipPath>
</defs>
</svg>
