<svg width="32" height="32" viewBox="0 0 32 32" fill="none" xmlns="http://www.w3.org/2000/svg">
<path d="M2.71997 16C2.71997 8.63596 8.68797 2.66663 16.0533 2.66663C23.416 2.66663 29.3866 8.63596 29.3866 16C29.3866 23.364 23.416 29.3333 16.0533 29.3333C8.68797 29.3333 2.71997 23.364 2.71997 16Z" fill="#FC3F1D"/>
<path d="M17.7599 10.2213H16.5279C14.2692 10.2213 13.0812 11.3653 13.0812 13.052C13.0812 14.9586 13.9026 15.852 15.5892 16.9973L16.9826 17.936L12.9786 23.9186H9.98657L13.5799 18.5666C11.5132 17.0853 10.3532 15.6466 10.3532 13.2133C10.3532 10.1626 12.4799 8.07996 16.5132 8.07996H20.5172V23.904H17.7599V10.2213Z" fill="white"/>
</svg>
