<svg width="1159" height="131" viewBox="0 0 1159 131" fill="none" xmlns="http://www.w3.org/2000/svg">
<path d="M439.5 24C461.856 24 480 42.144 480 64.5V105H439.5C417.132 105 399 86.8675 399 64.5C399 42.144 417.144 24 439.5 24Z" fill="#0ACF83"/>
<ellipse cx="447.243" cy="49.6103" rx="6.55147" ry="7.74265" fill="white"/>
<ellipse cx="443.312" cy="50.9007" rx="2.62059" ry="3.87132" fill="#163BF3"/>
<ellipse cx="431.757" cy="49.6103" rx="6.55147" ry="7.74265" fill="white"/>
<ellipse cx="427.826" cy="50.9007" rx="2.62059" ry="3.87132" fill="#163BF3"/>
<path d="M162.295 105.63C155.365 105.63 149.275 104.16 144.025 101.22C138.845 98.28 134.785 94.255 131.845 89.145C128.905 84.035 127.435 78.225 127.435 71.715V31.395H138.775V71.19C138.775 75.67 139.825 79.695 141.925 83.265C144.025 86.765 146.86 89.53 150.43 91.56C154 93.59 157.955 94.605 162.295 94.605C166.915 94.605 171.045 93.59 174.685 91.56C178.325 89.53 181.195 86.765 183.295 83.265C185.395 79.695 186.445 75.67 186.445 71.19V31.395H197.26V71.715C197.26 78.225 195.79 84.035 192.85 89.145C189.91 94.255 185.815 98.28 180.565 101.22C175.315 104.16 169.225 105.63 162.295 105.63ZM247.133 105V42.42H221.303V31.5H285.038V42.42H258.473V105H247.133ZM368.674 105V31.5H380.014V105H368.674ZM310.084 105V31.5H321.424V105H310.084ZM315.019 74.13L315.124 63.21H373.714V74.13H315.019ZM503.165 105V31.5H542.855C547.195 31.5 551.15 32.515 554.72 34.545C558.29 36.575 561.16 39.305 563.33 42.735C565.5 46.165 566.585 50.015 566.585 54.285C566.585 58.625 565.43 62.58 563.12 66.15C560.81 69.65 557.73 72.485 553.88 74.655C550.1 76.755 545.935 77.805 541.385 77.805H514.505V105H503.165ZM556.4 105L533.195 71.82L545.165 69.195L570.47 105.105L556.4 105ZM514.505 66.885H540.965C543.415 66.885 545.69 66.325 547.79 65.205C549.89 64.015 551.535 62.475 552.725 60.585C553.985 58.625 554.615 56.525 554.615 54.285C554.615 52.045 553.95 50.05 552.62 48.3C551.36 46.48 549.61 45.045 547.37 43.995C545.13 42.945 542.715 42.42 540.125 42.42H514.505V66.885ZM599.96 105V93.975H617.075V42.525H599.96V31.5H645.635V42.525H628.415V93.975H645.635V105H599.96ZM671.467 105V96.705L722.077 40.635L725.542 42.525H674.197V31.5H738.037V39.69L687.427 95.865L684.067 93.975H739.192V105H671.467ZM756.022 105L789.832 31.5H802.642L836.242 105H823.852L801.382 56.175C800.892 55.055 800.332 53.795 799.702 52.395C799.072 50.925 798.442 49.42 797.812 47.88C797.182 46.34 796.552 44.8 795.922 43.26C795.362 41.72 794.872 40.25 794.452 38.85L797.497 38.745C796.937 40.285 796.342 41.86 795.712 43.47C795.152 45.01 794.557 46.55 793.927 48.09C793.297 49.56 792.667 51.03 792.037 52.5C791.407 53.9 790.777 55.265 790.147 56.595L767.887 105H756.022ZM770.827 87.465L775.237 76.545H815.977L818.602 87.465H770.827ZM873.134 105V42.42H847.304V31.5H911.039V42.42H884.474V105H873.134ZM935.98 105V93.975H953.095V42.525H935.98V31.5H981.655V42.525H964.435V93.975H981.655V105H935.98ZM1049.73 106.05C1043.64 106.05 1038.04 105.105 1032.93 103.215C1027.82 101.255 1023.38 98.56 1019.6 95.13C1015.82 91.7 1012.88 87.71 1010.78 83.16C1008.75 78.54 1007.73 73.57 1007.73 68.25C1007.73 62.93 1008.75 57.995 1010.78 53.445C1012.88 48.825 1015.82 44.8 1019.6 41.37C1023.38 37.94 1027.82 35.28 1032.93 33.39C1038.04 31.43 1043.64 30.45 1049.73 30.45C1055.82 30.45 1061.42 31.43 1066.53 33.39C1071.64 35.28 1076.09 37.94 1079.87 41.37C1083.65 44.8 1086.59 48.825 1088.69 53.445C1090.79 57.995 1091.84 62.93 1091.84 68.25C1091.84 73.57 1090.79 78.54 1088.69 83.16C1086.59 87.71 1083.65 91.7 1079.87 95.13C1076.09 98.56 1071.64 101.255 1066.53 103.215C1061.42 105.105 1055.82 106.05 1049.73 106.05ZM1049.73 95.025C1054.21 95.025 1058.31 94.36 1062.02 93.03C1065.73 91.63 1068.95 89.74 1071.68 87.36C1074.41 84.91 1076.51 82.075 1077.98 78.855C1079.52 75.565 1080.29 72.03 1080.29 68.25C1080.29 64.47 1079.52 60.97 1077.98 57.75C1076.51 54.46 1074.41 51.625 1071.68 49.245C1068.95 46.795 1065.73 44.905 1062.02 43.575C1058.31 42.175 1054.21 41.475 1049.73 41.475C1045.25 41.475 1041.16 42.175 1037.45 43.575C1033.74 44.905 1030.52 46.76 1027.79 49.14C1025.06 51.52 1022.96 54.355 1021.49 57.645C1020.02 60.865 1019.28 64.4 1019.28 68.25C1019.28 72.03 1020.02 75.565 1021.49 78.855C1022.96 82.145 1025.06 84.98 1027.79 87.36C1030.52 89.74 1033.74 91.63 1037.45 93.03C1041.16 94.36 1045.25 95.025 1049.73 95.025ZM1119.42 105V31.5H1130.45L1185.89 91.665L1185.05 92.61C1184.7 90.58 1184.38 88.41 1184.1 86.1C1183.89 83.79 1183.72 81.41 1183.58 78.96C1183.44 76.44 1183.3 73.885 1183.16 71.295C1183.09 68.635 1183.02 66.01 1182.95 63.42C1182.95 60.76 1182.95 58.17 1182.95 55.65V31.5H1194.29V105H1183.05L1128.35 47.04L1128.66 45.57C1128.87 47.67 1129.05 49.77 1129.19 51.87C1129.4 53.97 1129.61 56.035 1129.82 58.065C1130.03 60.095 1130.2 62.055 1130.34 63.945C1130.48 65.835 1130.59 67.69 1130.66 69.51C1130.73 71.26 1130.76 72.905 1130.76 74.445V105H1119.42Z" fill="white" fill-opacity="0.7"/>
<path d="M57.5 12.5C82.892 12.5 103.5 33.108 103.5 58.5L103.5 104.5L11.5 104.5L11.5 58.5C11.5 33.108 32.108 12.5 57.5 12.5Z" fill="#163BF3"/>
<ellipse cx="6.5" cy="7.5" rx="6.5" ry="7.5" transform="matrix(-1 0 0 1 57 30)" fill="white"/>
<ellipse cx="2.6" cy="3.75" rx="2.6" ry="3.75" transform="matrix(-1 0 0 1 57 35)" fill="#163BF3"/>
<ellipse cx="6.5" cy="7.5" rx="6.5" ry="7.5" transform="matrix(-1 0 0 1 72 30)" fill="white"/>
<ellipse cx="2.6" cy="3.75" rx="2.6" ry="3.75" transform="matrix(-1 0 0 1 72 35)" fill="#163BF3"/>
</svg>
