<?xml version="1.0" encoding="UTF-8" standalone="no"?>
<svg
   version="1.1"
   id="Layer_1"
   x="0px"
   y="0px"
   width="100%"
   viewBox="0 0 1021 460"
   enable-background="new 0 0 1021 460"
   xml:space="preserve"
   sodipodi:docname="Mainpage_adobe_express.svg"
   inkscape:version="1.2.2 (732a01da63, 2022-12-09, custom)"
   xmlns:inkscape="http://www.inkscape.org/namespaces/inkscape"
   xmlns:sodipodi="http://sodipodi.sourceforge.net/DTD/sodipodi-0.dtd"
   xmlns="http://www.w3.org/2000/svg"
   xmlns:svg="http://www.w3.org/2000/svg"><defs
   id="defs51" /><sodipodi:namedview
   id="namedview49"
   pagecolor="#ffffff"
   bordercolor="#000000"
   borderopacity="0.25"
   inkscape:showpageshadow="2"
   inkscape:pageopacity="0.0"
   inkscape:pagecheckerboard="0"
   inkscape:deskcolor="#d1d1d1"
   showgrid="false"
   inkscape:zoom="1.2830558"
   inkscape:cx="510.5"
   inkscape:cy="231.08893"
   inkscape:window-width="1846"
   inkscape:window-height="1016"
   inkscape:window-x="0"
   inkscape:window-y="0"
   inkscape:window-maximized="1"
   inkscape:current-layer="Layer_1" />

<path
   fill="#A259FF"
   opacity="1.000000"
   stroke="none"
   d=" M617.166382,217.000320   C618.110657,210.796570 618.526855,204.454559 620.107300,198.417374   C623.567322,185.200790 627.066956,171.946426 631.565979,159.062119   C637.262268,142.748978 646.615784,128.152863 657.697205,115.143265   C667.456604,103.685707 678.463074,92.999992 690.223938,83.607635   C706.627869,70.507294 725.091064,60.425117 745.548950,54.906914   C756.438843,51.969509 767.609375,49.956173 778.749268,48.102962   C786.167603,46.868866 793.797668,45.806938 801.257690,46.178692   C812.816650,46.754715 824.308167,48.649494 835.834167,49.931831   C855.588013,52.129574 873.493896,59.713474 890.762451,68.986755   C903.060425,75.590767 914.233276,83.765068 924.769531,93.022598   C937.271790,104.007484 947.739563,116.594017 956.816345,130.363785   C970.077820,150.481918 979.083435,172.448318 982.895752,196.285385   C984.573120,206.772934 985.013550,217.458298 986.027344,228.984131   C986.030212,291.554718 986.021179,353.195007 986.012146,414.835297   C984.018188,414.890198 982.024231,414.992950 980.030273,414.993103   C859.335083,415.002289 738.639954,415.003082 617.503052,414.594116   C617.066528,351.778564 617.070312,289.373474 617.080566,226.968399   C617.081116,223.645706 617.136475,220.323013 617.166382,217.000320  M808.089172,166.034927   C806.141846,171.617935 807.313354,176.321152 812.320068,180.636093   C818.257446,186.575790 825.356018,187.910110 832.919922,184.862015   C839.549927,182.190247 843.457275,176.902740 844.026978,169.601624   C844.642517,161.712555 841.408630,155.599045 834.546570,151.788345   C821.647095,144.624985 807.395630,155.332855 808.089172,166.034927  M752.157227,168.221008   C751.334900,173.141998 752.540710,177.240402 757.195923,180.679062   C764.031250,187.238388 773.439636,188.231155 780.871948,183.177338   C787.913513,178.389206 790.707825,169.060623 787.494141,161.069931   C784.251831,153.008011 776.096558,148.445129 767.383789,149.818222   C758.621765,151.199066 752.626587,158.082275 752.157227,168.221008  z"
   id="path20" />
<path
   fill="#0ACF83"
   opacity="1.000000"
   stroke="none"
   d=" M617.097656,216.576294   C617.136475,220.323013 617.081116,223.645706 617.080566,226.968399   C617.070312,289.373474 617.066528,351.778564 617.039795,414.660706   C617.018188,415.137756 616.957642,415.046417 616.528809,415.020935   C566.036438,414.997101 515.972778,414.988098 465.909180,415.007507   C452.606079,415.012665 439.303009,415.105072 425.999939,415.157410   C406.297424,415.516205 387.174591,411.374115 369.050903,404.574310   C355.092987,399.337463 342.393250,390.747223 329.163757,383.038147   C337.691437,375.607391 346.189392,368.786621 355.986572,360.923035   C353.371979,359.084320 351.676880,358.221405 350.395966,356.943359   C317.954315,324.574402 285.553314,292.164703 253.159042,259.748260   C251.636917,258.225098 250.242493,256.574310 248.874405,254.545044   C248.629456,248.893890 247.995178,243.678589 248.031143,238.467896   C248.105850,227.645630 248.536072,216.825806 248.969940,205.697632   C284.123047,170.295380 319.126312,135.200485 354.452728,99.781624   C353.029358,98.542831 351.925171,97.548775 350.786377,96.596062   C343.398529,90.415161 336.003143,84.243263 328.610199,78.068420   C345.481934,66.253853 364.032196,58.325218 383.862549,52.762012   C396.743866,49.148285 409.735718,47.065659 422.953735,46.713696   C444.681183,46.135151 466.121429,48.175644 487.151031,54.432140   C509.760834,61.158775 530.040283,72.188789 548.197510,86.863640   C571.071228,105.350441 588.919312,128.104980 600.954041,155.046005   C608.888184,172.807297 614.479980,191.328110 616.037292,210.881058   C616.178406,212.653229 616.689575,214.395905 617.097656,216.576294  M472.662964,176.270996   C477.348206,171.524811 477.858582,165.925491 476.015717,159.020355   C476.075745,150.715118 470.332428,143.015182 462.474182,140.865540   C455.169891,138.867416 447.324463,142.366623 443.268982,149.838821   C438.646606,158.355545 438.622498,167.070145 443.556091,175.469086   C450.365997,187.062134 464.280121,187.584625 472.662964,176.270996  M424.942657,160.580597   C424.504822,151.458664 419.352692,143.664230 411.867981,141.165024   C404.958405,138.857834 399.141968,140.922226 394.321686,146.138351   C387.191650,153.853821 386.230988,166.554291 392.031830,175.750259   C399.254425,187.200089 412.941895,187.567398 421.129211,176.103409   C425.632507,172.060303 425.316467,166.768280 424.942657,160.580597  z"
   id="path22" />
<path
   fill="#FED940"
   opacity="1.000000"
   stroke="none"
   d=" M328.269531,78.036964   C336.003143,84.243263 343.398529,90.415161 350.786377,96.596062   C351.925171,97.548775 353.029358,98.542831 354.452728,99.781624   C319.126312,135.200485 284.123047,170.295380 248.669922,205.824707   C240.120239,214.272675 232.020370,222.286194 224.505661,229.720795   C232.758392,238.306335 240.773483,246.644669 248.788574,254.982971   C250.242493,256.574310 251.636917,258.225098 253.159042,259.748260   C285.553314,292.164703 317.954315,324.574402 350.395966,356.943359   C351.676880,358.221405 353.371979,359.084320 355.986572,360.923035   C346.189392,368.786621 337.691437,375.607391 329.011414,382.720367   C313.045258,393.114319 296.448914,401.384155 278.555084,407.263031   C255.174042,414.944672 231.128113,416.417480 207.020950,414.735352   C185.648560,413.244049 165.148560,407.161377 145.556671,398.048279   C121.728661,386.964722 101.396667,371.234650 84.311653,351.620728   C62.941803,327.087769 48.586285,298.708069 43.121590,266.415222   C40.943394,253.543518 39.132965,240.395416 39.264187,227.394424   C39.493172,204.706879 44.062397,182.671310 52.755142,161.488800   C63.393166,135.566040 78.786385,113.020905 99.415886,94.199471   C110.306168,84.263664 122.312881,75.780228 135.413742,68.702057   C150.571991,60.512329 166.418640,54.430340 183.085205,50.522079   C196.994598,47.260361 211.158569,45.321865 225.508118,46.029556   C242.128891,46.849262 258.748260,48.512157 274.719696,53.173939   C290.964783,57.915588 306.574707,64.564240 321.058258,73.537659   C323.379974,74.976097 325.640228,76.513733 328.269531,78.036964  z"
   id="path24" />


<path
   fill="#FDFCFF"
   opacity="1.000000"
   stroke="none"
   d=" M752.059509,167.412247   C752.626587,158.082275 758.621765,151.199066 767.383789,149.818222   C776.096558,148.445129 784.251831,153.008011 787.494141,161.069931   C790.707825,169.060623 787.913513,178.389206 780.871948,183.177338   C773.439636,188.231155 764.031250,187.238388 757.484497,180.368225   C763.098938,179.878418 765.706665,177.669418 766.532166,172.637634   C767.246155,168.285004 764.962830,163.368362 761.506897,162.250549   C756.628784,160.672729 754.249939,163.930573 752.059509,167.412247  z"
   id="path30" />
<path
   fill="#FDFDFF"
   opacity="1.000000"
   stroke="none"
   d=" M808.082886,165.264450   C807.395630,155.332855 821.647095,144.624985 834.546570,151.788345   C841.408630,155.599045 844.642517,161.712555 844.026978,169.601624   C843.457275,176.902740 839.549927,182.190247 832.919922,184.862015   C825.356018,187.910110 818.257446,186.575790 812.585449,180.347504   C816.558899,180.607101 819.269592,179.231201 820.953308,175.865204   C822.953613,171.866562 822.096436,166.139297 819.002380,163.526123   C814.729797,159.917618 811.427063,162.815796 808.082886,165.264450  z"
   id="path32" />
<path
   fill="#1E41F3"
   opacity="1.000000"
   stroke="none"
   d=" M808.086060,165.649689   C811.427063,162.815796 814.729797,159.917618 819.002380,163.526123   C822.096436,166.139297 822.953613,171.866562 820.953308,175.865204   C819.269592,179.231201 816.558899,180.607101 812.442871,180.040939   C807.313354,176.321152 806.141846,171.617935 808.086060,165.649689  z"
   id="path34" />
<path
   fill="#1D41F3"
   opacity="1.000000"
   stroke="none"
   d=" M752.108398,167.816620   C754.249939,163.930573 756.628784,160.672729 761.506897,162.250549   C764.962830,163.368362 767.246155,168.285004 766.532166,172.637634   C765.706665,177.669418 763.098938,179.878418 757.361755,180.048370   C752.540710,177.240402 751.334900,173.141998 752.108398,167.816620  z"
   id="path36" />
<path
   fill="#FBFEFD"
   opacity="1.000000"
   stroke="none"
   d=" M420.790009,176.521988   C412.941895,187.567398 399.254425,187.200089 392.031830,175.750259   C386.230988,166.554291 387.191650,153.853821 394.321686,146.138351   C399.141968,140.922226 404.958405,138.857834 411.867981,141.165024   C419.352692,143.664230 424.504822,151.458664 424.676392,160.758148   C423.037415,157.762451 420.986053,154.232697 417.372894,155.370102   C414.803314,156.179001 412.225403,159.364761 411.223297,162.071732   C410.227631,164.761215 410.683929,168.307053 411.421265,171.247192   C412.633698,176.081787 415.515015,177.424362 420.790009,176.521988  z"
   id="path38" />
<path
   fill="#FCFEFE"
   opacity="1.000000"
   stroke="none"
   d=" M472.206207,176.702942   C464.280121,187.584625 450.365997,187.062134 443.556091,175.469086   C438.622498,167.070145 438.646606,158.355545 443.268982,149.838821   C447.324463,142.366623 455.169891,138.867416 462.474182,140.865540   C470.332428,143.015182 476.075745,150.715118 475.668793,159.387909   C473.895477,156.635330 471.875366,154.256866 468.050568,155.295593   C463.922028,156.416824 461.142883,163.299042 462.311890,168.958588   C463.599457,175.192169 466.349243,177.344498 472.206207,176.702942  z"
   id="path40" />

<path
   fill="#1B41F2"
   opacity="1.000000"
   stroke="none"
   d=" M472.434570,176.486969   C466.349243,177.344498 463.599457,175.192169 462.311890,168.958588   C461.142883,163.299042 463.922028,156.416824 468.050568,155.295593   C471.875366,154.256866 473.895477,156.635330 475.670654,159.800751   C477.858582,165.925491 477.348206,171.524811 472.434570,176.486969  z"
   id="path44" />
<path
   fill="#1C41F3"
   opacity="1.000000"
   stroke="none"
   d=" M420.959595,176.312698   C415.515015,177.424362 412.633698,176.081787 411.421265,171.247192   C410.683929,168.307053 410.227631,164.761215 411.223297,162.071732   C412.225403,159.364761 414.803314,156.179001 417.372894,155.370102   C420.986053,154.232697 423.037415,157.762451 424.667511,161.196198   C425.316467,166.768280 425.632507,172.060303 420.959595,176.312698  z"
   id="path46" />
</svg>
