<?xml version="1.0" encoding="UTF-8" standalone="no"?>
<svg
   version="1.1"
   id="Layer_1"
   x="0px"
   y="0px"
   width="200"
   viewBox="0 0 200 200"
   enable-background="new 0 0 1021 460"
   xml:space="preserve"
   sodipodi:docname="Purple.svg"
   inkscape:version="1.2.2 (732a01da63, 2022-12-09, custom)"
   height="200"
   xmlns:inkscape="http://www.inkscape.org/namespaces/inkscape"
   xmlns:sodipodi="http://sodipodi.sourceforge.net/DTD/sodipodi-0.dtd"
   xmlns="http://www.w3.org/2000/svg"
   xmlns:svg="http://www.w3.org/2000/svg"><defs
   id="defs51" /><sodipodi:namedview
   id="namedview49"
   pagecolor="#ffffff"
   bordercolor="#000000"
   borderopacity="0.25"
   inkscape:showpageshadow="2"
   inkscape:pageopacity="0.0"
   inkscape:pagecheckerboard="0"
   inkscape:deskcolor="#d1d1d1"
   showgrid="false"
   inkscape:zoom="1.2830558"
   inkscape:cx="267.33054"
   inkscape:cy="202.25153"
   inkscape:window-width="1846"
   inkscape:window-height="1016"
   inkscape:window-x="0"
   inkscape:window-y="0"
   inkscape:window-maximized="1"
   inkscape:current-layer="Layer_1" />

<path
   fill="#a259ff"
   opacity="1"
   stroke="none"
   d="M 2.3877693,92.853739 C 2.8906904,89.559991 3.1123598,86.192827 3.9541078,82.987513 5.7969324,75.970451 7.6608471,68.933324 10.057041,62.092677 13.090906,53.431569 18.072623,45.682064 23.974627,38.7749 29.172518,32.691752 35.034602,27.018399 41.298478,22.031725 50.03527,15.076381 59.868836,9.7234633 70.764775,6.79369 76.564774,5.2341371 82.514238,4.165202 88.447382,3.1812791 92.398417,2.5260569 96.462213,1.9622489 100.43545,2.1596207 c 6.15633,0.3058358 12.27677,1.311822 18.41555,1.9926528 10.52097,1.1668418 20.05771,5.1933607 29.255,10.1168035 6.54995,3.506261 12.50064,7.846237 18.11229,12.761324 6.65874,5.832188 12.23392,12.514746 17.06824,19.825506 7.06311,10.681299 11.85954,22.343891 13.88999,34.999676 0.89337,5.568142 1.12794,11.241314 1.6679,17.360707 10e-4,33.22052 -0.004,65.94713 -0.008,98.67372 -1.06199,0.0291 -2.12398,0.0837 -3.18597,0.0838 -64.28268,0.005 -128.565327,0.006 -193.0832693,-0.21183 -0.2324965,-33.35059 -0.2304779,-66.48325 -0.2250192,-99.615892 2.926e-4,-1.764117 0.029773,-3.528234 0.045693,-5.29234 M 104.07378,65.794729 c -1.03716,2.964178 -0.41321,5.461258 2.25338,7.752182 3.16227,3.153555 6.943,3.861982 10.97156,2.243658 3.53117,-1.418513 5.61224,-4.225799 5.91565,-8.102177 0.32785,-4.188538 -1.39453,-7.434366 -5.04929,-9.457584 -6.87031,-3.803234 -14.46069,1.881885 -14.0913,7.563921 m -29.789556,1.160655 c -0.437975,2.612702 0.204243,4.788658 2.683631,6.614346 3.640515,3.482528 8.651456,4.009616 12.609931,1.3264 3.750365,-2.542155 5.238624,-7.494966 3.527007,-11.737454 -1.726865,-4.280313 -6.070397,-6.70287 -10.710849,-5.973859 -4.666682,0.733132 -7.859737,4.387625 -8.10972,9.770567 z"
   id="path20"
   style="stroke-width:0.531765" />




<path
   fill="#fdfcff"
   opacity="1"
   stroke="none"
   d="m 74.232323,66.525998 c 0.302028,-4.953545 3.495082,-8.608038 8.161765,-9.34117 4.640452,-0.729011 8.983983,1.693546 10.710849,5.97386 1.711617,4.242487 0.223357,9.195298 -3.527007,11.737453 -3.958476,2.683217 -8.969417,2.156128 -12.456238,-1.491444 2.990269,-0.260038 4.379156,-1.432865 4.81882,-4.104384 0.380274,-2.310943 -0.835836,-4.921331 -2.676476,-5.514801 -2.598099,-0.837712 -3.865084,0.891967 -5.031713,2.740486 z"
   id="path30"
   style="stroke-width:0.531765" />
<path
   fill="#fdfdff"
   opacity="1"
   stroke="none"
   d="m 104.07057,65.38568 c -0.36604,-5.272976 7.22434,-10.958095 14.09465,-7.154861 3.65475,2.023218 5.37714,5.269046 5.04929,9.457584 -0.30341,3.876378 -2.38448,6.683664 -5.91565,8.102177 -4.02856,1.618324 -7.80928,0.909898 -10.83021,-2.396881 2.11627,0.137833 3.56,-0.592668 4.45676,-2.379774 1.06536,-2.123 0.60883,-5.163767 -1.03908,-6.551173 -2.2756,-1.91586 -4.03464,-0.37714 -5.81576,0.922928 z"
   id="path32"
   style="stroke-width:0.531765" />
<path
   fill="#1e41f3"
   opacity="1"
   stroke="none"
   d="m 104.07226,65.59021 c 1.77943,-1.504598 3.53847,-3.043318 5.81407,-1.127458 1.64791,1.387406 2.10444,4.428173 1.03908,6.551173 -0.89676,1.787106 -2.34049,2.517607 -4.5327,2.21701 -2.73199,-1.974936 -3.35594,-4.472016 -2.32045,-7.640725 z"
   id="path34"
   style="stroke-width:0.531765" />
<path
   fill="#1d41f3"
   opacity="1"
   stroke="none"
   d="m 74.258362,66.740702 c 1.14059,-2.063223 2.407575,-3.792902 5.005674,-2.95519 1.84064,0.59347 3.05675,3.203858 2.676476,5.514801 -0.439664,2.671519 -1.828551,3.844346 -4.884193,3.934574 -2.567709,-1.490834 -3.209927,-3.666789 -2.797957,-6.494185 z"
   id="path36"
   style="stroke-width:0.531765" />





</svg>
