<svg width="1038" height="131" viewBox="0 0 1038 131" fill="none" xmlns="http://www.w3.org/2000/svg">
<path d="M883.5 23C905.856 23 924 41.144 924 63.5V104H883.5C861.132 104 843 85.8675 843 63.5C843 41.144 861.144 23 883.5 23Z" fill="#163BF3"/>
<ellipse cx="891.243" cy="48.6103" rx="6.55147" ry="7.74265" fill="white"/>
<ellipse cx="887.312" cy="49.9007" rx="2.62059" ry="3.87132" fill="#163BF3"/>
<ellipse cx="875.757" cy="48.6103" rx="6.55147" ry="7.74265" fill="white"/>
<ellipse cx="871.826" cy="49.9007" rx="2.62059" ry="3.87132" fill="#163BF3"/>
<path d="M-13.41 105V31.5H26.28C30.62 31.5 34.575 32.515 38.145 34.545C41.715 36.575 44.585 39.305 46.755 42.735C48.925 46.165 50.01 50.015 50.01 54.285C50.01 58.625 48.855 62.58 46.545 66.15C44.235 69.65 41.155 72.485 37.305 74.655C33.525 76.755 29.36 77.805 24.81 77.805H-2.07V105H-13.41ZM39.825 105L16.62 71.82L28.59 69.195L53.895 105.105L39.825 105ZM-2.07 66.885H24.39C26.84 66.885 29.115 66.325 31.215 65.205C33.315 64.015 34.96 62.475 36.15 60.585C37.41 58.625 38.04 56.525 38.04 54.285C38.04 52.045 37.375 50.05 36.045 48.3C34.785 46.48 33.035 45.045 30.795 43.995C28.555 42.945 26.14 42.42 23.55 42.42H-2.07V66.885ZM83.4894 105V31.5H140.399V42.42H94.8294V94.08H140.399V105H83.4894ZM89.4744 72.765V61.845H134.624V72.765H89.4744ZM260.982 105V93.975H278.097V42.525H260.982V31.5H306.657V42.525H289.437V93.975H306.657V105H260.982ZM368.505 106.05C363.605 106.05 359.09 105.525 354.96 104.475C350.83 103.425 347.05 101.85 343.62 99.75C340.19 97.65 337.075 94.99 334.275 91.77L341.625 82.425C345.825 87.185 350.06 90.615 354.33 92.715C358.67 94.815 363.535 95.865 368.925 95.865C372.285 95.865 375.47 95.445 378.48 94.605C381.49 93.695 383.94 92.4 385.83 90.72C387.79 89.04 388.77 86.94 388.77 84.42C388.77 82.81 388.28 81.445 387.3 80.325C386.32 79.205 385.025 78.26 383.415 77.49C381.805 76.72 379.985 76.09 377.955 75.6C375.995 75.11 374 74.725 371.97 74.445C370.01 74.095 368.19 73.78 366.51 73.5C362.03 72.87 358.04 71.995 354.54 70.875C351.04 69.685 348.03 68.25 345.51 66.57C343.06 64.82 341.17 62.72 339.84 60.27C338.58 57.82 337.95 55.02 337.95 51.87C337.95 48.58 338.72 45.605 340.26 42.945C341.8 40.285 343.97 38.045 346.77 36.225C349.57 34.335 352.825 32.9 356.535 31.92C360.245 30.94 364.27 30.45 368.61 30.45C373.16 30.45 377.325 30.94 381.105 31.92C384.955 32.9 388.35 34.37 391.29 36.33C394.3 38.22 396.785 40.565 398.745 43.365L391.08 51.555C389.26 49.175 387.16 47.18 384.78 45.57C382.47 43.96 379.915 42.735 377.115 41.895C374.315 41.055 371.375 40.635 368.295 40.635C364.795 40.635 361.68 41.055 358.95 41.895C356.22 42.735 354.05 43.925 352.44 45.465C350.83 46.935 350.025 48.72 350.025 50.82C350.025 52.64 350.48 54.215 351.39 55.545C352.37 56.805 353.735 57.89 355.485 58.8C357.235 59.64 359.37 60.375 361.89 61.005C364.41 61.635 367.28 62.16 370.5 62.58C374.56 63.21 378.41 63.98 382.05 64.89C385.76 65.8 389.015 66.99 391.815 68.46C394.615 69.93 396.82 71.82 398.43 74.13C400.04 76.37 400.845 79.17 400.845 82.53C400.845 87.29 399.515 91.455 396.855 95.025C394.195 98.525 390.45 101.255 385.62 103.215C380.79 105.105 375.085 106.05 368.505 106.05ZM446.588 105V42.42H420.758V31.5H484.493V42.42H457.928V105H446.588ZM509.539 105V31.5H549.229C553.569 31.5 557.524 32.515 561.094 34.545C564.664 36.575 567.534 39.305 569.704 42.735C571.874 46.165 572.959 50.015 572.959 54.285C572.959 58.625 571.804 62.58 569.494 66.15C567.184 69.65 564.104 72.485 560.254 74.655C556.474 76.755 552.309 77.805 547.759 77.805H520.879V105H509.539ZM562.774 105L539.569 71.82L551.539 69.195L576.844 105.105L562.774 105ZM520.879 66.885H547.339C549.789 66.885 552.064 66.325 554.164 65.205C556.264 64.015 557.909 62.475 559.099 60.585C560.359 58.625 560.989 56.525 560.989 54.285C560.989 52.045 560.324 50.05 558.994 48.3C557.734 46.48 555.984 45.045 553.744 43.995C551.504 42.945 549.089 42.42 546.499 42.42H520.879V66.885ZM597.514 105L631.324 31.5H644.134L677.734 105H665.344L642.874 56.175C642.384 55.055 641.824 53.795 641.194 52.395C640.564 50.925 639.934 49.42 639.304 47.88C638.674 46.34 638.044 44.8 637.414 43.26C636.854 41.72 636.364 40.25 635.944 38.85L638.989 38.745C638.429 40.285 637.834 41.86 637.204 43.47C636.644 45.01 636.049 46.55 635.419 48.09C634.789 49.56 634.159 51.03 633.529 52.5C632.899 53.9 632.269 55.265 631.639 56.595L609.379 105H597.514ZM612.319 87.465L616.729 76.545H657.469L660.094 87.465H612.319ZM714.626 105V42.42H688.796V31.5H752.531V42.42H725.966V105H714.626ZM777.471 105V93.975H794.586V42.525H777.471V31.5H823.146V42.525H805.926V93.975H823.146V105H777.471ZM946.048 105V31.5H957.073L1012.51 91.665L1011.67 92.61C1011.32 90.58 1011.01 88.41 1010.73 86.1C1010.52 83.79 1010.34 81.41 1010.2 78.96C1010.06 76.44 1009.92 73.885 1009.78 71.295C1009.71 68.635 1009.64 66.01 1009.57 63.42C1009.57 60.76 1009.57 58.17 1009.57 55.65V31.5H1020.91V105H1009.68L954.973 47.04L955.288 45.57C955.498 47.67 955.673 49.77 955.813 51.87C956.023 53.97 956.233 56.035 956.443 58.065C956.653 60.095 956.828 62.055 956.968 63.945C957.108 65.835 957.213 67.69 957.283 69.51C957.353 71.26 957.388 72.905 957.388 74.445V105H946.048Z" fill="white" fill-opacity="0.7"/>
<path d="M234.138 36.8622C228.474 31.1981 221.257 27.3409 213.401 25.7782C205.545 24.2155 197.402 25.0175 190.001 28.0829C182.601 31.1482 176.276 36.3392 171.825 42.9994C167.375 49.6596 165 57.4899 165 65.5C165 73.5102 167.375 81.3404 171.825 88.0006C176.276 94.6608 182.601 99.8518 190.001 102.917C197.402 105.982 205.545 106.785 213.401 105.222C221.257 103.659 228.474 99.8018 234.138 94.1378L205.5 65.5L234.138 36.8622Z" fill="#FED940"/>
</svg>
