<svg width="929" height="263" viewBox="0 0 929 263" fill="none" xmlns="http://www.w3.org/2000/svg">
<path d="M174.59 236.5V163H213.965C218.165 163 222.015 164.015 225.515 166.045C229.085 168.005 231.92 170.7 234.02 174.13C236.12 177.56 237.17 181.375 237.17 185.575C237.17 189.915 236.015 193.87 233.705 197.44C231.465 201.01 228.49 203.845 224.78 205.945C221.07 208.045 216.94 209.095 212.39 209.095H185.93V236.5H174.59ZM185.93 198.175H211.655C214.105 198.175 216.345 197.615 218.375 196.495C220.475 195.305 222.12 193.765 223.31 191.875C224.57 189.915 225.2 187.815 225.2 185.575C225.2 183.405 224.57 181.445 223.31 179.695C222.12 177.945 220.475 176.545 218.375 175.495C216.345 174.445 214.105 173.92 211.655 173.92H185.93V198.175ZM249.542 236.5L283.352 163H296.162L329.762 236.5H317.372L294.902 187.675C294.412 186.555 293.852 185.295 293.222 183.895C292.592 182.425 291.962 180.92 291.332 179.38C290.702 177.84 290.072 176.3 289.442 174.76C288.882 173.22 288.392 171.75 287.972 170.35L291.017 170.245C290.457 171.785 289.862 173.36 289.232 174.97C288.672 176.51 288.077 178.05 287.447 179.59C286.817 181.06 286.187 182.53 285.557 184C284.927 185.4 284.297 186.765 283.667 188.095L261.407 236.5H249.542ZM264.347 218.965L268.757 208.045H309.497L312.122 218.965H264.347ZM488.77 236.5V163H499.9L531.61 205.105L527.2 205L558.91 163H569.83V236.5H558.49V205.63C558.49 199.68 558.63 194.15 558.91 189.04C559.19 183.93 559.75 178.785 560.59 173.605L561.85 177.805L532.765 215.395H525.835L496.855 177.91L498.01 173.605C498.85 178.715 499.41 183.825 499.69 188.935C499.97 193.975 500.11 199.54 500.11 205.63V236.5H488.77ZM692.925 236.5V163H703.95L759.39 223.165L758.55 224.11C758.2 222.08 757.885 219.91 757.605 217.6C757.395 215.29 757.22 212.91 757.08 210.46C756.94 207.94 756.8 205.385 756.66 202.795C756.59 200.135 756.52 197.51 756.45 194.92C756.45 192.26 756.45 189.67 756.45 187.15V163H767.79V236.5H756.555L701.85 178.54L702.165 177.07C702.375 179.17 702.55 181.27 702.69 183.37C702.9 185.47 703.11 187.535 703.32 189.565C703.53 191.595 703.705 193.555 703.845 195.445C703.985 197.335 704.09 199.19 704.16 201.01C704.23 202.76 704.265 204.405 704.265 205.945V236.5H692.925Z" fill="white" fill-opacity="0.7"/>
<path d="M633.5 145.052C658.892 145.052 679.5 165.738 679.5 191.227L679.5 237.403L587.5 237.403L587.5 191.227C587.5 165.738 608.108 145.052 633.5 145.052Z" fill="#163BF3"/>
<ellipse cx="6.5" cy="7.52863" rx="6.5" ry="7.52863" transform="matrix(-1 0 0 1 633 162.618)" fill="white"/>
<ellipse cx="2.6" cy="3.76431" rx="2.6" ry="3.76431" transform="matrix(-1 0 0 1 633 167.637)" fill="#163BF3"/>
<ellipse cx="6.5" cy="7.52863" rx="6.5" ry="7.52863" transform="matrix(-1 0 0 1 648 162.618)" fill="white"/>
<ellipse cx="2.6" cy="3.76431" rx="2.6" ry="3.76431" transform="matrix(-1 0 0 1 648 167.637)" fill="#163BF3"/>
<path d="M447.159 157.44C439.117 149.368 428.872 143.871 417.718 141.643C406.564 139.416 395.002 140.559 384.496 144.928C373.989 149.297 365.009 156.695 358.69 166.187C352.372 175.679 349 186.838 349 198.254C349 209.67 352.372 220.829 358.691 230.321C365.009 239.813 373.989 247.211 384.496 251.58C395.002 255.948 406.564 257.091 417.718 254.864C428.872 252.637 439.117 247.14 447.159 239.068L406.5 198.254L447.159 157.44Z" fill="#FED940"/>
<ellipse cx="5.83333" cy="7.02672" rx="5.83333" ry="7.02672" transform="matrix(-1 0 0 1 428.667 152.58)" fill="white"/>
<ellipse cx="2.33333" cy="3.51336" rx="2.33333" ry="3.51336" transform="matrix(-1 0 0 1 428.667 157.265)" fill="#163BF3"/>
<path d="M33.705 105L7.665 31.5H20.055L35.175 75.495C35.735 76.895 36.26 78.435 36.75 80.115C37.24 81.795 37.73 83.51 38.22 85.26C38.71 86.94 39.165 88.55 39.585 90.09C40.005 91.63 40.39 93.03 40.74 94.29L36.54 94.185C37.38 91.805 38.185 89.53 38.955 87.36C39.725 85.12 40.495 83.02 41.265 81.06C42.105 79.03 42.91 77.14 43.68 75.39L57.12 44.205H67.83L80.85 75.285C81.69 77.175 82.53 79.17 83.37 81.27C84.21 83.37 84.98 85.435 85.68 87.465C86.45 89.495 87.08 91.42 87.57 93.24L83.685 93.975C84.035 92.575 84.385 91.28 84.735 90.09C85.085 88.83 85.435 87.605 85.785 86.415C86.135 85.155 86.485 83.93 86.835 82.74C87.255 81.48 87.675 80.22 88.095 78.96C88.585 77.63 89.075 76.265 89.565 74.865L105.945 31.5H118.125L89.775 105H81.9L61.11 56.49L62.79 56.91L42.105 105H33.705ZM142.405 105V31.5H199.315V42.42H153.745V94.08H199.315V105H142.405ZM148.39 72.765V61.845H193.54V72.765H148.39ZM230.179 105V31.5H241.519V94.08H286.564V105H230.179ZM348.506 106.05C342.836 106.05 337.551 105.175 332.651 103.425C327.751 101.605 323.446 99.015 319.736 95.655C316.096 92.295 313.261 88.305 311.231 83.685C309.201 78.995 308.186 73.85 308.186 68.25C308.186 62.93 309.236 57.995 311.336 53.445C313.506 48.895 316.446 44.94 320.156 41.58C323.936 38.15 328.276 35.525 333.176 33.705C338.076 31.815 343.291 30.87 348.821 30.87C353.231 30.87 357.466 31.465 361.526 32.655C365.586 33.845 369.261 35.385 372.551 37.275C375.911 39.095 378.606 41.09 380.636 43.26L373.601 52.395C371.221 50.295 368.701 48.475 366.041 46.935C363.451 45.395 360.651 44.205 357.641 43.365C354.631 42.525 351.411 42.105 347.981 42.105C344.341 42.105 340.841 42.735 337.481 43.995C334.121 45.185 331.076 46.935 328.346 49.245C325.686 51.485 323.586 54.25 322.046 57.54C320.506 60.76 319.736 64.33 319.736 68.25C319.736 72.52 320.506 76.335 322.046 79.695C323.656 82.985 325.861 85.75 328.661 87.99C331.461 90.23 334.646 91.945 338.216 93.135C341.856 94.325 345.671 94.92 349.661 94.92C353.301 94.92 356.626 94.465 359.636 93.555C362.646 92.575 365.341 91.35 367.721 89.88C370.171 88.34 372.376 86.8 374.336 85.26L379.796 94.605C377.976 96.285 375.456 98.035 372.236 99.855C369.016 101.605 365.376 103.075 361.316 104.265C357.256 105.455 352.986 106.05 348.506 106.05ZM444.317 106.05C438.227 106.05 432.627 105.105 427.517 103.215C422.407 101.255 417.962 98.56 414.182 95.13C410.402 91.7 407.462 87.71 405.362 83.16C403.332 78.54 402.317 73.57 402.317 68.25C402.317 62.93 403.332 57.995 405.362 53.445C407.462 48.825 410.402 44.8 414.182 41.37C417.962 37.94 422.407 35.28 427.517 33.39C432.627 31.43 438.227 30.45 444.317 30.45C450.407 30.45 456.007 31.43 461.117 33.39C466.227 35.28 470.672 37.94 474.452 41.37C478.232 44.8 481.172 48.825 483.272 53.445C485.372 57.995 486.422 62.93 486.422 68.25C486.422 73.57 485.372 78.54 483.272 83.16C481.172 87.71 478.232 91.7 474.452 95.13C470.672 98.56 466.227 101.255 461.117 103.215C456.007 105.105 450.407 106.05 444.317 106.05ZM444.317 95.025C448.797 95.025 452.892 94.36 456.602 93.03C460.312 91.63 463.532 89.74 466.262 87.36C468.992 84.91 471.092 82.075 472.562 78.855C474.102 75.565 474.872 72.03 474.872 68.25C474.872 64.47 474.102 60.97 472.562 57.75C471.092 54.46 468.992 51.625 466.262 49.245C463.532 46.795 460.312 44.905 456.602 43.575C452.892 42.175 448.797 41.475 444.317 41.475C439.837 41.475 435.742 42.175 432.032 43.575C428.322 44.905 425.102 46.76 422.372 49.14C419.642 51.52 417.542 54.355 416.072 57.645C414.602 60.865 413.867 64.4 413.867 68.25C413.867 72.03 414.602 75.565 416.072 78.855C417.542 82.145 419.642 84.98 422.372 87.36C425.102 89.74 428.322 91.63 432.032 93.03C435.742 94.36 439.837 95.025 444.317 95.025ZM514.007 105V31.5H525.137L556.847 73.605L552.437 73.5L584.147 31.5H595.067V105H583.727V74.13C583.727 68.18 583.867 62.65 584.147 57.54C584.427 52.43 584.987 47.285 585.827 42.105L587.087 46.305L558.002 83.895H551.072L522.092 46.41L523.247 42.105C524.087 47.215 524.647 52.325 524.927 57.435C525.207 62.475 525.347 68.04 525.347 74.13V105H514.007ZM628.338 105V31.5H685.248V42.42H639.678V94.08H685.248V105H628.338ZM634.323 72.765V61.845H679.473V72.765H634.323ZM778.874 105V42.42H753.044V31.5H816.779V42.42H790.214V105H778.874ZM875.186 106.05C869.096 106.05 863.496 105.105 858.386 103.215C853.276 101.255 848.831 98.56 845.051 95.13C841.271 91.7 838.331 87.71 836.231 83.16C834.201 78.54 833.186 73.57 833.186 68.25C833.186 62.93 834.201 57.995 836.231 53.445C838.331 48.825 841.271 44.8 845.051 41.37C848.831 37.94 853.276 35.28 858.386 33.39C863.496 31.43 869.096 30.45 875.186 30.45C881.276 30.45 886.876 31.43 891.986 33.39C897.096 35.28 901.541 37.94 905.321 41.37C909.101 44.8 912.041 48.825 914.141 53.445C916.241 57.995 917.291 62.93 917.291 68.25C917.291 73.57 916.241 78.54 914.141 83.16C912.041 87.71 909.101 91.7 905.321 95.13C901.541 98.56 897.096 101.255 891.986 103.215C886.876 105.105 881.276 106.05 875.186 106.05ZM875.186 95.025C879.666 95.025 883.761 94.36 887.471 93.03C891.181 91.63 894.401 89.74 897.131 87.36C899.861 84.91 901.961 82.075 903.431 78.855C904.971 75.565 905.741 72.03 905.741 68.25C905.741 64.47 904.971 60.97 903.431 57.75C901.961 54.46 899.861 51.625 897.131 49.245C894.401 46.795 891.181 44.905 887.471 43.575C883.761 42.175 879.666 41.475 875.186 41.475C870.706 41.475 866.611 42.175 862.901 43.575C859.191 44.905 855.971 46.76 853.241 49.14C850.511 51.52 848.411 54.355 846.941 57.645C845.471 60.865 844.736 64.4 844.736 68.25C844.736 72.03 845.471 75.565 846.941 78.855C848.411 82.145 850.511 84.98 853.241 87.36C855.971 89.74 859.191 91.63 862.901 93.03C866.611 94.36 870.706 95.025 875.186 95.025Z" fill="white" fill-opacity="0.7"/>
</svg>
